<svg width="16" height="17" viewBox="0 0 16 17" fill="none" xmlns="http://www.w3.org/2000/svg">
<path fill-rule="evenodd" clip-rule="evenodd" d="M5.36409 13.2816C5.51252 13.4301 5.70784 13.5051 5.90315 13.5051C6.05867 13.5051 6.21419 13.4585 6.34684 13.3638C6.38077 13.3398 6.41321 13.3127 6.44376 13.2824C6.45065 13.2755 6.45737 13.2686 6.46394 13.2615L14.7828 4.94414C15.0813 4.6457 15.0813 4.16289 14.7828 3.86445C14.4844 3.56602 14.0016 3.56602 13.7031 3.86445L5.90369 11.6625L2.27501 8.03242C1.97657 7.73398 1.49376 7.73398 1.19532 8.03242C0.896887 8.33086 0.896887 8.81367 1.19532 9.11211L5.34389 13.2607C5.35046 13.2678 5.3572 13.2747 5.36409 13.2816Z" fill="white" fill-opacity="0.65"/>
</svg>
