<svg width="16" height="16" viewBox="0 0 16 16" fill="none" xmlns="http://www.w3.org/2000/svg">
<path d="M3.35229 8.46365C4.72512 8.02092 6.30486 7.73736 7.60185 7.6175C9.3275 7.45784 11.0521 7.68695 12.341 8.55694C14.071 9.72276 13.9981 13.6664 15.6362 14.3469C12.8571 13.1925 10.5375 11.6521 7.34268 11.0115C10.387 11.5573 13.3262 13.7855 15.4436 15.5116C12.3338 15.4602 7.87327 15.9995 5.45216 14.4716C3.64706 13.3328 3.16365 11.2324 1.00833 10.3221C-0.13628 9.83824 1.33844 9.29482 2.08637 8.94971C2.47459 8.77017 2.90251 8.60802 3.35229 8.46365Z" fill="#87B91F"/>
<path d="M8.00078 0.975788C8.61958 0.618523 9.38198 0.618522 10.0008 0.975788L13.3701 2.92109C13.9889 3.27835 14.3701 3.93861 14.3701 4.65314V8.54374C14.3701 9.25827 13.9889 9.91852 13.3701 10.2758L10.0008 12.2211C9.38198 12.5784 8.61958 12.5784 8.00078 12.2211L4.63142 10.2758C4.01262 9.91852 3.63142 9.25827 3.63142 8.54374V4.65314C3.63142 3.93861 4.01262 3.27835 4.63142 2.92109L8.00078 0.975788Z" fill="#B3D6FF"/>
<path d="M7.20039 2.57735C7.81919 2.22008 8.58159 2.22008 9.20039 2.57735L12.2233 4.32265C12.8421 4.67992 13.2233 5.34017 13.2233 6.0547V9.5453C13.2233 10.2598 12.8421 10.9201 12.2233 11.2774L9.20039 13.0227C8.58159 13.3799 7.81919 13.3799 7.20039 13.0227L4.17744 11.2774C3.55864 10.9201 3.17744 10.2598 3.17744 9.5453V6.0547C3.17744 5.34017 3.55864 4.67992 4.17744 4.32265L7.20039 2.57735Z" fill="#376FFF"/>
<path d="M8.42934 10.7969C6.89691 10.7969 5.59961 9.78651 5.59961 7.82796C5.59961 5.9005 6.94556 4.79688 8.47799 4.79688C9.26447 4.79688 9.89691 5.14662 10.3104 5.55076L9.54826 6.43677C9.24826 6.17252 8.93204 5.98599 8.50231 5.98599C7.72393 5.98599 7.08339 6.65439 7.08339 7.78133C7.08339 8.93159 7.63474 9.59998 8.4861 9.59998C8.96447 9.59998 9.35366 9.36682 9.63745 9.07149L10.3996 9.94195C9.8888 10.5093 9.21583 10.7969 8.42934 10.7969Z" fill="white"/>
</svg>
