<svg width="24" height="24" viewBox="0 0 24 24" fill="none" xmlns="http://www.w3.org/2000/svg">
<path d="M4.5 3.74989C4.30109 3.74989 4.11032 3.82891 3.96967 3.96956C3.82902 4.11021 3.75 4.30098 3.75 4.49989V8.99989C3.75 9.1988 3.82902 9.38957 3.96967 9.53022C4.11032 9.67087 4.30109 9.74989 4.5 9.74989H9C9.19891 9.74989 9.38968 9.67087 9.53033 9.53022C9.67098 9.38957 9.75 9.1988 9.75 8.99989V4.49989C9.75 4.30098 9.67098 4.11021 9.53033 3.96956C9.38968 3.82891 9.19891 3.74989 9 3.74989H4.5ZM4.5 2.24989H9C9.59674 2.24989 10.169 2.48694 10.591 2.9089C11.0129 3.33086 11.25 3.90315 11.25 4.49989V8.99989C11.25 9.59663 11.0129 10.1689 10.591 10.5909C10.169 11.0128 9.59674 11.2499 9 11.2499H4.5C3.90326 11.2499 3.33097 11.0128 2.90901 10.5909C2.48705 10.1689 2.25 9.59663 2.25 8.99989V4.49989C2.25 3.90315 2.48705 3.33086 2.90901 2.9089C3.33097 2.48694 3.90326 2.24989 4.5 2.24989ZM4.5 14.2499C4.30109 14.2499 4.11032 14.3289 3.96967 14.4696C3.82902 14.6102 3.75 14.801 3.75 14.9999V19.4999C3.75 19.6988 3.82902 19.8896 3.96967 20.0302C4.11032 20.1709 4.30109 20.2499 4.5 20.2499H9C9.19891 20.2499 9.38968 20.1709 9.53033 20.0302C9.67098 19.8896 9.75 19.6988 9.75 19.4999V14.9999C9.75 14.801 9.67098 14.6102 9.53033 14.4696C9.38968 14.3289 9.19891 14.2499 9 14.2499H4.5ZM4.5 12.7499H9C9.59674 12.7499 10.169 12.9869 10.591 13.4089C11.0129 13.8309 11.25 14.4032 11.25 14.9999V19.4999C11.25 20.0966 11.0129 20.6689 10.591 21.0909C10.169 21.5128 9.59674 21.7499 9 21.7499H4.5C3.90326 21.7499 3.33097 21.5128 2.90901 21.0909C2.48705 20.6689 2.25 20.0966 2.25 19.4999V14.9999C2.25 14.4032 2.48705 13.8309 2.90901 13.4089C3.33097 12.9869 3.90326 12.7499 4.5 12.7499ZM15 14.2499C14.8011 14.2499 14.6103 14.3289 14.4697 14.4696C14.329 14.6102 14.25 14.801 14.25 14.9999V19.4999C14.25 19.6988 14.329 19.8896 14.4697 20.0302C14.6103 20.1709 14.8011 20.2499 15 20.2499H19.5C19.6989 20.2499 19.8897 20.1709 20.0303 20.0302C20.171 19.8896 20.25 19.6988 20.25 19.4999V14.9999C20.25 14.801 20.171 14.6102 20.0303 14.4696C19.8897 14.3289 19.6989 14.2499 19.5 14.2499H15ZM15 12.7499H19.5C20.0967 12.7499 20.669 12.9869 21.091 13.4089C21.5129 13.8309 21.75 14.4032 21.75 14.9999V19.4999C21.75 20.0966 21.5129 20.6689 21.091 21.0909C20.669 21.5128 20.0967 21.7499 19.5 21.7499H15C14.4033 21.7499 13.831 21.5128 13.409 21.0909C12.9871 20.6689 12.75 20.0966 12.75 19.4999V14.9999C12.75 14.4032 12.9871 13.8309 13.409 13.4089C13.831 12.9869 14.4033 12.7499 15 12.7499ZM14.1157 6.24064C14.046 6.31029 13.9907 6.39301 13.953 6.48406C13.9152 6.57511 13.8958 6.6727 13.8958 6.77126C13.8958 6.86983 13.9152 6.96742 13.953 7.05847C13.9907 7.14952 14.046 7.23224 14.1157 7.30189L16.7407 9.92689C16.8104 9.99662 16.8931 10.0519 16.9842 10.0897C17.0752 10.1274 17.1728 10.1469 17.2714 10.1469C17.3699 10.1469 17.4675 10.1274 17.5586 10.0897C17.6496 10.0519 17.7323 9.99662 17.802 9.92689L20.427 7.30189C20.4967 7.23224 20.5521 7.14952 20.5898 7.05847C20.6275 6.96742 20.647 6.86983 20.647 6.77126C20.647 6.6727 20.6275 6.57511 20.5898 6.48406C20.5521 6.39301 20.4967 6.31029 20.427 6.24064L17.802 3.61564C17.7323 3.54591 17.6496 3.49059 17.5586 3.45285C17.4675 3.4151 17.3699 3.39568 17.2714 3.39568C17.1728 3.39568 17.0752 3.4151 16.9842 3.45285C16.8931 3.49059 16.8104 3.54591 16.7407 3.61564L14.1157 6.24064ZM13.0552 5.18014L15.6802 2.55514C15.8892 2.34617 16.1372 2.1804 16.4102 2.0673C16.6833 1.95421 16.9759 1.896 17.2714 1.896C17.5669 1.896 17.8595 1.95421 18.1325 2.0673C18.4055 2.1804 18.6536 2.34617 18.8625 2.55514L21.4875 5.18014C21.6965 5.38908 21.8622 5.63713 21.9753 5.91014C22.0884 6.18315 22.1466 6.47576 22.1466 6.77126C22.1466 7.06677 22.0884 7.35938 21.9753 7.63239C21.8622 7.9054 21.6965 8.15345 21.4875 8.36239L18.8625 10.9874C18.6536 11.1964 18.4055 11.3621 18.1325 11.4752C17.8595 11.5883 17.5669 11.6465 17.2714 11.6465C16.9759 11.6465 16.6833 11.5883 16.4102 11.4752C16.1372 11.3621 15.8892 11.1964 15.6802 10.9874L13.0552 8.36239C12.8463 8.15345 12.6805 7.9054 12.5674 7.63239C12.4543 7.35938 12.3961 7.06677 12.3961 6.77126C12.3961 6.47576 12.4543 6.18315 12.5674 5.91014C12.6805 5.63713 12.8463 5.38908 13.0552 5.18014Z" fill="white"/>
</svg>
