<svg width="16" height="16" viewBox="0 0 16 16" fill="none" xmlns="http://www.w3.org/2000/svg">
<path d="M6.9999 0.977252C7.61871 0.619987 8.3811 0.619987 8.9999 0.977253L13.5817 3.62255C14.2005 3.97982 14.5817 4.64007 14.5817 5.3546V10.6452C14.5817 11.3597 14.2005 12.02 13.5817 12.3773L8.9999 15.0226C8.3811 15.3798 7.6187 15.3798 6.9999 15.0226L2.41811 12.3773C1.79931 12.02 1.41811 11.3597 1.41811 10.6452V5.3546C1.41811 4.64007 1.79931 3.97982 2.41811 3.62255L6.9999 0.977252Z" fill="#27D295"/>
<g clip-path="url(#clip0_5076_750)">
<path d="M9.92394 4.56006C11.1737 4.56006 12.1871 5.59826 12.1871 7.05097C12.1871 9.95737 9.10141 11.6173 8.07251 12.2401C7.25865 11.7477 5.15844 10.6054 4.31565 8.71191H3.96211C3.73292 8.71191 3.54712 8.52611 3.54712 8.29692V8.29692C3.54712 8.06773 3.73292 7.88193 3.96211 7.88193H4.04469C3.98679 7.60881 3.9577 7.33027 3.9579 7.05097C3.9579 5.59826 4.9868 4.56006 6.22108 4.56006C6.98673 4.56006 7.66076 4.97554 8.07251 5.39004C8.48426 4.97456 9.1583 4.56006 9.92394 4.56006ZM9.92394 5.39004C9.48133 5.39004 9.00208 5.62648 8.65398 5.97677L8.07251 6.56447L7.49105 5.97774C7.14294 5.62746 6.66369 5.39004 6.22108 5.39004C5.42265 5.39004 4.7814 6.07796 4.7814 7.05097C4.7814 7.33509 4.81805 7.6124 4.89133 7.88096H5.7833L6.63283 6.4516L7.86712 8.52704L8.25091 7.88096H9.71434C9.94354 7.88096 10.1293 8.06675 10.1293 8.29595V8.29595C10.1293 8.52514 9.94354 8.71094 9.71434 8.71094H8.71666L7.86712 10.1413L6.63283 8.06583L6.24808 8.71191H5.23655C5.56151 9.2821 6.0533 9.8192 6.69165 10.332C6.9983 10.5782 7.32519 10.8078 7.68776 11.0374C7.81119 11.1162 7.93269 11.1912 8.07251 11.2748C8.21233 11.1912 8.33383 11.1162 8.45726 11.0374C8.80187 10.8205 9.1344 10.5847 9.45337 10.331C10.679 9.34826 11.3636 8.27308 11.3636 7.05097C11.3636 6.07115 10.731 5.39004 9.92394 5.39004Z" fill="white"/>
</g>
<defs>
<clipPath id="clip0_5076_750">
<rect width="9.6" height="9.6" fill="white" transform="translate(3.06714 3.6001)"/>
</clipPath>
</defs>
</svg>
