<svg width="16" height="16" viewBox="0 0 16 16" fill="none" xmlns="http://www.w3.org/2000/svg">
<path d="M7.00039 0.975787C7.61919 0.618522 8.38159 0.618522 9.00039 0.975788L13.5822 3.62109C14.201 3.97835 14.5822 4.63861 14.5822 5.35314V10.6437C14.5822 11.3583 14.201 12.0185 13.5822 12.3758L9.00039 15.0211C8.38159 15.3784 7.61919 15.3784 7.00039 15.0211L2.4186 12.3758C1.79979 12.0185 1.4186 11.3583 1.4186 10.6437V5.35314C1.4186 4.63861 1.7998 3.97835 2.4186 3.62109L7.00039 0.975787Z" fill="#27D295"/>
<g clip-path="url(#clip0_8088_47525)">
<path d="M9.9237 4.5625C11.1734 4.5625 12.1869 5.60071 12.1869 7.05342C12.1869 9.95981 9.10116 11.6198 8.07227 12.2425C7.25841 11.7502 5.1582 10.6078 4.31541 8.71435H3.96187C3.73267 8.71435 3.54688 8.52855 3.54688 8.29936C3.54688 8.07017 3.73267 7.88437 3.96187 7.88437H4.04445C3.98655 7.61125 3.95745 7.33271 3.95766 7.05342C3.95766 5.60071 4.98655 4.5625 6.22084 4.5625C6.98648 4.5625 7.66052 4.97798 8.07227 5.39248C8.48402 4.977 9.15805 4.5625 9.9237 4.5625ZM9.9237 5.39248C9.48109 5.39248 9.00184 5.62892 8.65373 5.97921L8.07227 6.56691L7.4908 5.98018C7.1427 5.6299 6.66345 5.39248 6.22084 5.39248C5.42241 5.39248 4.78116 6.0804 4.78116 7.05342C4.78116 7.33754 4.8178 7.61485 4.89109 7.8834H5.78305L6.63259 6.45404L7.86688 8.52948L8.25066 7.8834H9.7141C9.94329 7.8834 10.1291 8.0692 10.1291 8.29839C10.1291 8.52758 9.94329 8.71338 9.7141 8.71338H8.71641L7.86688 10.1437L6.63259 8.06827L6.24784 8.71435H5.2363C5.56127 9.28454 6.05305 9.82164 6.69141 10.3344C6.99805 10.5806 7.32495 10.8102 7.68752 11.0399C7.81095 11.1187 7.93245 11.1936 8.07227 11.2773C8.21209 11.1936 8.33359 11.1187 8.45702 11.0399C8.80162 10.823 9.13416 10.5871 9.45312 10.3334C10.6787 9.3507 11.3634 8.27552 11.3634 7.05342C11.3634 6.07359 10.7308 5.39248 9.9237 5.39248Z" fill="white"/>
</g>
<defs>
<clipPath id="clip0_8088_47525">
<rect width="9.6" height="9.6" fill="white" transform="translate(3.06641 3.60156)"/>
</clipPath>
</defs>
</svg>
