<svg width="16" height="17" viewBox="0 0 16 17" fill="none" xmlns="http://www.w3.org/2000/svg">
<path d="M7.99999 12.3781L4.67099 14.8446C4.32599 15.0996 3.83449 15.0346 3.57299 14.6981C3.49789 14.6024 3.44725 14.4898 3.42547 14.37C3.40369 14.2503 3.41142 14.1271 3.44799 14.0111L4.73149 9.94958L1.30749 7.39758C1.22611 7.33797 1.15757 7.26259 1.10594 7.17593C1.05432 7.08927 1.02067 6.9931 1.00699 6.89316C0.993324 6.79322 0.999913 6.69155 1.02637 6.59421C1.05283 6.49687 1.09861 6.40585 1.16099 6.32658C1.30899 6.13758 1.53899 6.02658 1.78249 6.02658L5.97999 6.01958L7.25199 2.03708C7.38049 1.63408 7.81949 1.40958 8.23299 1.53458C8.47899 1.60958 8.67149 1.79708 8.74799 2.03708L10.02 6.01958L14.2175 6.02658C14.6505 6.02708 15.0005 6.36958 15 6.79158C15 7.02908 14.886 7.25308 14.6925 7.39758L11.2685 9.94958L12.552 14.0111C12.6795 14.4141 12.4475 14.8421 12.034 14.9661C11.9151 15.0019 11.7895 15.0096 11.6672 14.9885C11.5448 14.9674 11.429 14.9182 11.329 14.8446L7.99999 12.3781Z" fill="#28E7E7"/>
</svg>
