<svg width="16" height="16" viewBox="0 0 16 16" fill="none" xmlns="http://www.w3.org/2000/svg">
<path d="M3.3518 8.46561C4.72463 8.02287 6.30437 7.73931 7.60136 7.61945C9.32701 7.45979 11.0516 7.68891 12.3405 8.5589C14.0705 9.72471 13.9976 13.6684 15.6357 14.3488C12.8566 13.1945 10.537 11.654 7.34219 11.0135C10.3865 11.5592 13.3257 13.7874 15.4431 15.5136C12.3333 15.4622 7.87278 16.0014 5.45167 14.4736C3.64657 13.3348 3.16316 11.2343 1.00784 10.3241C-0.136769 9.84019 1.33795 9.29677 2.08588 8.95166C2.4741 8.77212 2.90203 8.60997 3.3518 8.46561Z" fill="#87B91F"/>
<path d="M8.00005 0.977253C8.61885 0.619987 9.38125 0.619987 10 0.977253L13.3694 2.92255C13.9882 3.27982 14.3694 3.94007 14.3694 4.6546V8.5452C14.3694 9.25973 13.9882 9.91999 13.3694 10.2773L10 12.2226C9.38125 12.5798 8.61885 12.5798 8.00005 12.2226L4.63069 10.2773C4.01189 9.91999 3.63069 9.25973 3.63069 8.5452V4.6546C3.63069 3.94007 4.01189 3.27982 4.63069 2.92255L8.00005 0.977253Z" fill="#B3D6FF"/>
<path d="M7.1999 2.57735C7.8187 2.22008 8.5811 2.22008 9.1999 2.57735L12.2229 4.32265C12.8417 4.67992 13.2228 5.34017 13.2228 6.0547V9.5453C13.2228 10.2598 12.8417 10.9201 12.2228 11.2774L9.1999 13.0227C8.5811 13.3799 7.8187 13.3799 7.1999 13.0227L4.17695 11.2774C3.55815 10.9201 3.17696 10.2598 3.17696 9.5453V6.0547C3.17696 5.34017 3.55815 4.67992 4.17696 4.32265L7.1999 2.57735Z" fill="#376FFF"/>
<path d="M8.42983 10.7998C6.89739 10.7998 5.6001 9.78944 5.6001 7.83089C5.6001 5.90343 6.94604 4.7998 8.47848 4.7998C9.26496 4.7998 9.89739 5.14955 10.3109 5.55369L9.54875 6.4397C9.24875 6.17545 8.93253 5.98892 8.5028 5.98892C7.72442 5.98892 7.08388 6.65732 7.08388 7.78426C7.08388 8.93452 7.63523 9.60291 8.48658 9.60291C8.96496 9.60291 9.35415 9.36975 9.63794 9.07442L10.4001 9.94488C9.88929 10.5122 9.21631 10.7998 8.42983 10.7998Z" fill="white"/>
</svg>
