<svg t="1705388151398" class="icon" viewBox="0 0 1890 1024" version="1.1" xmlns="http://www.w3.org/2000/svg" p-id="21475" width="256" height="256"><path d="M1732.923077 0a157.538462 157.538462 0 0 1 157.538461 157.538462v708.923076a157.538462 157.538462 0 0 1-157.538461 157.538462H708.923077l15.005538-59.076923H196.923077a177.230769 177.230769 0 0 1-177.033846-168.881231L19.692308 787.692308V236.307692A177.230769 177.230769 0 0 1 196.923077 59.076923h756.932923l15.044923-59.076923H1732.923077zM943.852308 98.461538H196.923077A137.846154 137.846154 0 0 0 59.076923 236.307692v551.384616A137.846154 137.846154 0 0 0 196.923077 925.538462h537.009231l209.92-827.076924z m598.96123 340.795077c-28.632615 0-52.854154 11.264-72.664615 33.752616l-5.316923 6.419692v-34.658461h-58.289231v236.859076h62.779077v-107.677538c0-26.230154 1.575385-44.622769 4.726154-54.350769 3.150769-9.688615 9.452308-17.841231 17.841231-23.630769 8.388923-6.025846 18.628923-8.900923 29.144615-8.900924a34.855385 34.855385 0 0 1 34.934154 23.906462c2.323692 6.498462 3.623385 20.48 3.859692 41.432615l0.07877 8.152616v121.068307h62.227692v-147.298461c0-18.116923-1.063385-32.295385-3.426462-42.023385a69.710769 69.710769 0 0 0-12.091077-26.505846c-5.750154-7.876923-14.414769-14.178462-25.993846-19.180308a92.514462 92.514462 0 0 0-37.809231-7.364923zM1345.378462 354.461538H1102.769231v327.168h248.910769v-55.138461h-182.744615v-89.009231h164.115692v-55.138461H1168.935385v-72.467693h176.443077V354.461538z" fill="#3C8CD2" p-id="21476"></path><path d="M690.294154 631.729231v-240.246154h-194.56V275.692308h-62.070154v115.790769H236.307692v240.246154h56.32v-28.356923h141.036308v194.284307h62.070154V603.372308h149.582769v28.356923h44.977231z m-257.457231-79.556923H292.627692v-109.64677h140.209231v109.64677z m61.715692 0v-107.677539h150.764308v107.677539h-150.764308z" fill="#3C8CD2" p-id="21477"></path></svg>