<svg t="1705387934170" class="icon" viewBox="0 0 1929 1024" version="1.1" xmlns="http://www.w3.org/2000/svg" p-id="17476" width="256" height="256"><path d="M1181.538462 0l-15.005539 59.076923H1732.923077a177.230769 177.230769 0 0 1 177.033846 168.881231L1910.153846 236.307692v551.384616a177.230769 177.230769 0 0 1-177.230769 177.230769H936.566154L921.6 1024H157.538462a157.538462 157.538462 0 0 1-157.538462-157.538462V157.538462a157.538462 157.538462 0 0 1 157.538462-157.538462h1024z m551.384615 98.461538H1156.529231l-209.959385 827.076924H1732.923077a137.846154 137.846154 0 0 0 137.649231-130.284308L1870.769231 787.692308V236.307692A137.846154 137.846154 0 0 0 1732.923077 98.461538zM613.888 236.307692h-62.070154v115.79077H354.461538v240.246153h56.32v-28.356923h141.036308v194.284308h62.070154V563.987692h149.582769v28.356923h44.977231v-240.246153h-194.56V236.307692z m-62.897231 166.833231v109.646769h-140.209231v-109.646769h140.209231z m212.48 1.969231v107.677538h-150.764307v-107.677538h150.764307z" fill="#3C8CD2" p-id="17477"></path><path d="M1638.675692 681.629538v-121.068307c0-25.442462-1.339077-42.259692-3.938461-49.624616a34.855385 34.855385 0 0 0-34.934154-23.867077c-10.515692 0-20.755692 2.875077-29.144615 8.900924a45.764923 45.764923 0 0 0-17.841231 23.630769c-3.150769 9.728-4.726154 28.120615-4.726154 54.350769v107.677538h-62.779077v-236.859076h58.289231v34.658461c20.755692-26.781538 46.749538-40.172308 77.981538-40.172308 13.154462-0.236308 25.993846 2.363077 37.809231 7.364923 11.579077 5.001846 20.243692 11.303385 25.993846 19.180308 5.789538 7.876923 10.003692 16.777846 12.091077 26.505846 2.363077 9.728 3.426462 23.906462 3.426462 42.023385v147.298461h-62.227693zM1181.538462 354.461538h242.60923v55.414154h-176.443077v72.467693h164.115693v55.138461H1247.704615v89.009231h182.744616v55.138461H1181.538462V354.461538z" fill="#3C8CD2" p-id="17478"></path></svg>