<svg width="56" height="56" viewBox="0 0 56 56" fill="none" xmlns="http://www.w3.org/2000/svg">
<path fill-rule="evenodd" clip-rule="evenodd" d="M14.6276 29.9288L18.6626 39.6211C18.7643 39.8655 18.9595 40.0597 19.2051 40.161L29.0775 44.2297L29.0775 34.4927L24.4905 29.9288H14.6276ZM29.0775 23.101L24.4906 27.6649L14.6277 27.6649L18.6626 17.9726C18.7643 17.7282 18.9595 17.534 19.2051 17.4328L29.0775 13.3641L29.0775 23.101ZM35.6774 27.6649L31.3528 23.362L31.3528 13.4722L40.9628 17.4328C41.2085 17.534 41.4036 17.7282 41.5054 17.9726L45.5403 27.6649H35.6774ZM31.3528 34.2318L35.6775 29.9288H45.5403L41.5054 39.6211C41.4036 39.8655 41.2085 40.0597 40.9628 40.161L31.3528 44.1216L31.3528 34.2318Z" fill="white"/>
<path fill-rule="evenodd" clip-rule="evenodd" d="M14.6276 29.9288L18.6626 39.6211C18.7643 39.8655 18.9595 40.0597 19.2051 40.161L29.0775 44.2297L29.0775 34.4927L24.4905 29.9288H14.6276ZM29.0775 23.101L24.4906 27.6649L14.6277 27.6649L18.6626 17.9726C18.7643 17.7282 18.9595 17.534 19.2051 17.4328L29.0775 13.3641L29.0775 23.101ZM35.6774 27.6649L31.3528 23.362L31.3528 13.4722L40.9628 17.4328C41.2085 17.534 41.4036 17.7282 41.5054 17.9726L45.5403 27.6649H35.6774ZM31.3528 34.2318L35.6775 29.9288H45.5403L41.5054 39.6211C41.4036 39.8655 41.2085 40.0597 40.9628 40.161L31.3528 44.1216L31.3528 34.2318Z" fill="white"/>
<mask id="path-2-inside-1_8121_37484" fill="white">
<path d="M51.3384 19.7514C53.4901 24.7561 53.788 30.358 52.1792 35.5608C50.5703 40.7635 47.1591 45.2299 42.552 48.1657C37.9449 51.1014 32.4407 52.3162 27.0182 51.594C21.5956 50.8719 16.6063 48.2595 12.9374 44.2216C9.26846 40.1836 7.15784 34.9818 6.98085 29.5412C6.80386 24.1006 8.57197 18.7739 11.9707 14.5083C15.3695 10.2427 20.1786 7.31482 25.5429 6.24524C30.9072 5.17566 36.4788 6.03375 41.267 8.66691L39.8898 11.1463C35.6913 8.83743 30.8059 8.08503 26.1023 9.02288C21.3988 9.96072 17.182 12.528 14.2018 16.2682C11.2216 20.0084 9.67131 24.6791 9.8265 29.4496C9.9817 34.2201 11.8324 38.7812 15.0494 42.3218C18.2664 45.8624 22.6412 48.153 27.3959 48.7862C32.1506 49.4195 36.9769 48.3543 41.0165 45.7801C45.0561 43.206 48.0472 39.2897 49.4579 34.7277C50.8686 30.1658 50.6074 25.2538 48.7207 20.8655L51.3384 19.7514Z"/>
</mask>
<path d="M51.3384 19.7514C53.4901 24.7561 53.788 30.358 52.1792 35.5608C50.5703 40.7635 47.1591 45.2299 42.552 48.1657C37.9449 51.1014 32.4407 52.3162 27.0182 51.594C21.5956 50.8719 16.6063 48.2595 12.9374 44.2216C9.26846 40.1836 7.15784 34.9818 6.98085 29.5412C6.80386 24.1006 8.57197 18.7739 11.9707 14.5083C15.3695 10.2427 20.1786 7.31482 25.5429 6.24524C30.9072 5.17566 36.4788 6.03375 41.267 8.66691L39.8898 11.1463C35.6913 8.83743 30.8059 8.08503 26.1023 9.02288C21.3988 9.96072 17.182 12.528 14.2018 16.2682C11.2216 20.0084 9.67131 24.6791 9.8265 29.4496C9.9817 34.2201 11.8324 38.7812 15.0494 42.3218C18.2664 45.8624 22.6412 48.153 27.3959 48.7862C32.1506 49.4195 36.9769 48.3543 41.0165 45.7801C45.0561 43.206 48.0472 39.2897 49.4579 34.7277C50.8686 30.1658 50.6074 25.2538 48.7207 20.8655L51.3384 19.7514Z" stroke="white" stroke-width="8" mask="url(#path-2-inside-1_8121_37484)"/>
<path d="M51.3384 19.7514C53.4901 24.7561 53.788 30.358 52.1792 35.5608C50.5703 40.7635 47.1591 45.2299 42.552 48.1657C37.9449 51.1014 32.4407 52.3162 27.0182 51.594C21.5956 50.8719 16.6063 48.2595 12.9374 44.2216C9.26846 40.1836 7.15784 34.9818 6.98085 29.5412C6.80386 24.1006 8.57197 18.7739 11.9707 14.5083C15.3695 10.2427 20.1786 7.31482 25.5429 6.24524C30.9072 5.17566 36.4788 6.03375 41.267 8.66691L39.8898 11.1463C35.6913 8.83743 30.8059 8.08503 26.1023 9.02288C21.3988 9.96072 17.182 12.528 14.2018 16.2682C11.2216 20.0084 9.67131 24.6791 9.8265 29.4496C9.9817 34.2201 11.8324 38.7812 15.0494 42.3218C18.2664 45.8624 22.6412 48.153 27.3959 48.7862C32.1506 49.4195 36.9769 48.3543 41.0165 45.7801C45.0561 43.206 48.0472 39.2897 49.4579 34.7277C50.8686 30.1658 50.6074 25.2538 48.7207 20.8655L51.3384 19.7514Z" stroke="white" stroke-width="8" mask="url(#path-2-inside-1_8121_37484)"/>
<path d="M38.7519 3.5L42.4297 5.01574L43.9531 8.67505L42.4297 12.3344L38.7519 13.8501L35.0742 12.3344L33.5508 8.67505L35.0742 5.01574L38.7519 3.5Z" fill="white"/>
<path d="M38.7519 3.5L42.4297 5.01574L43.9531 8.67505L42.4297 12.3344L38.7519 13.8501L35.0742 12.3344L33.5508 8.67505L35.0742 5.01574L38.7519 3.5Z" fill="white"/>
<path d="M8.70116 23.0469L12.3789 24.5626L13.9023 28.2219L12.3789 31.8812L8.70116 33.397L5.02338 31.8812L3.5 28.2219L5.02338 24.5626L8.70116 23.0469Z" fill="white"/>
<path d="M8.70116 23.0469L12.3789 24.5626L13.9023 28.2219L12.3789 31.8812L8.70116 33.397L5.02338 31.8812L3.5 28.2219L5.02338 24.5626L8.70116 23.0469Z" fill="white"/>
<path d="M44.5312 39.1484L48.209 40.6642L49.7324 44.3235L48.209 47.9828L44.5312 49.4985L40.8535 47.9828L39.3301 44.3235L40.8535 40.6642L44.5312 39.1484Z" fill="white"/>
<path d="M44.5312 39.1484L48.209 40.6642L49.7324 44.3235L48.209 47.9828L44.5312 49.4985L40.8535 47.9828L39.3301 44.3235L40.8535 40.6642L44.5312 39.1484Z" fill="white"/>
</svg>
