<svg width="24" height="24" viewBox="0 0 24 24" fill="none" xmlns="http://www.w3.org/2000/svg">
<path d="M16.06 3L18.992 6.75H19V10.25H18V7.75H4V18H10.25V19H3V6.75H3.002L5.826 3H16.06ZM11.5 4V6.75H17.722L15.572 4H11.5ZM10.5 4H6.325L4.253 6.75H10.5V4ZM13.815 16.025L13.108 16.732L15.329 18.953L19.519 14.857L18.82 14.142L15.337 17.547L13.816 16.025H13.815Z" fill="white" stroke="white" stroke-width="0.3"/>
<path d="M16.3751 10.875C17.0974 10.875 17.8127 11.0172 18.48 11.2936C19.1473 11.5699 19.7537 11.9751 20.2644 12.4858C20.7752 12.9965 21.1804 13.6028 21.4568 14.2702C21.7332 14.9375 21.8755 15.6527 21.8755 16.375C21.8755 17.0973 21.7332 17.8125 21.4568 18.4798C21.1804 19.1472 20.7752 19.7535 20.2644 20.2642C19.7537 20.7749 19.1473 21.1801 18.48 21.4564C17.8127 21.7328 17.0974 21.875 16.3751 21.875C14.9165 21.8749 13.5176 21.2954 12.4863 20.264C11.4549 19.2325 10.8755 17.8336 10.8755 16.375C10.8755 14.9164 11.4549 13.5175 12.4863 12.486C13.5176 11.4546 14.9165 10.8751 16.3751 10.875ZM16.3751 11.875C15.7842 11.875 15.199 11.9914 14.6531 12.2175C14.1071 12.4437 13.611 12.7752 13.1931 13.193C12.7753 13.6109 12.4438 14.107 12.2177 14.6529C11.9915 15.1989 11.8751 15.7841 11.8751 16.375C11.8751 16.9659 11.9915 17.5511 12.2177 18.0971C12.4438 18.643 12.7753 19.1391 13.1931 19.557C13.611 19.9748 14.1071 20.3063 14.6531 20.5325C15.199 20.7586 15.7842 20.875 16.3751 20.875C17.5686 20.875 18.7132 20.4009 19.5571 19.557C20.401 18.7131 20.8751 17.5685 20.8751 16.375C20.8751 15.1815 20.401 14.0369 19.5571 13.193C18.7132 12.3491 17.5686 11.875 16.3751 11.875Z" fill="white" stroke="white" stroke-width="0.3"/>
</svg>
